<svg xmlns="http://www.w3.org/2000/svg" version="1.0" width="32.000000pt" height="32.000000pt" viewBox="0 0 32.000000 32.000000" preserveAspectRatio="xMidYMid meet" transform="matrix(1, 0, 0, 1, 0, 0)">

<g transform="translate(0.000000,32.000000) scale(0.100000,-0.100000)" fill="#ffcd75" stroke="none">
<path d="M14 199 c-5 -9 -2 -10 9 -6 14 5 17 0 17 -33 0 -22 5 -40 10 -40 6 0 10 18 10 40 0 29 4 40 15 40 11 0 15 -11 15 -40 0 -22 5 -40 10 -40 6 0 10 10 10 23 l1 22 13 -24 14 -24 15 29 16 29 1 -27 c0 -15 4 -30 10 -33 6 -4 7 11 3 42 -7 60 -9 62 -24 29 -15 -32 -23 -33 -36 -3 -9 19 -20 24 -56 25 -27 2 -48 -2 -53 -9z" fill="#ffcd75"/>
<path d="M200 165 c0 -25 5 -45 10 -45 6 0 8 11 4 25 -8 33 2 32 19 -2 l14 -27 16 30 16 29 1 -27 c0 -15 4 -29 9 -32 7 -5 3 83 -5 92 -1 2 -10 -11 -19 -29 l-17 -33 -14 32 c-19 45 -34 40 -34 -13z" fill="#ffcd75"/>
</g>
</svg>